<svg width="1600" height="920" viewBox="0 0 1600 920" fill="none" xmlns="http://www.w3.org/2000/svg">
  <defs>
    <linearGradient id="pageGlow" x1="0" y1="0" x2="1600" y2="920" gradientUnits="userSpaceOnUse">
      <stop stop-color="#0B0B12"/>
      <stop offset=".7" stop-color="#0B0B12"/>
      <stop offset="1" stop-color="#170D18"/>
    </linearGradient>
    <linearGradient id="heroGlow" x1="430" y1="90" x2="980" y2="360" gradientUnits="userSpaceOnUse">
      <stop stop-color="#13131D"/>
      <stop offset=".65" stop-color="#17131F"/>
      <stop offset="1" stop-color="#321027"/>
    </linearGradient>
    <linearGradient id="brand" x1="0" y1="0" x2="1" y2="1">
      <stop stop-color="#FFAA00"/>
      <stop offset=".5" stop-color="#F00078"/>
      <stop offset="1" stop-color="#7228FF"/>
    </linearGradient>
    <filter id="softShadow" x="-20%" y="-20%" width="140%" height="140%">
      <feDropShadow dx="0" dy="18" stdDeviation="28" flood-color="#000000" flood-opacity="0.26"/>
    </filter>
  </defs>

  <rect width="1600" height="920" fill="url(#pageGlow)"/>

  <rect x="0" y="0" width="1600" height="70" fill="#0A0A10"/>
  <line x1="0" y1="70" x2="1600" y2="70" stroke="#20202A"/>
  <path d="M70 20L83 20L96 38L82 57L82 43L69 25C67 22 68 20 70 20Z" fill="url(#brand)"/>
  <text x="108" y="43" fill="#FFFFFF" font-family="Inter,Segoe UI,Arial,sans-serif" font-size="21" font-weight="800">Yapster</text>
  <rect x="280" y="14" width="68" height="42" rx="11" fill="#20202A"/>
  <text x="295" y="41" fill="#FFFFFF" font-family="Inter,Segoe UI,Arial,sans-serif" font-size="15" font-weight="700">Home</text>
  <text x="365" y="41" fill="#A9A7B3" font-family="Inter,Segoe UI,Arial,sans-serif" font-size="15" font-weight="650">Communities</text>
  <rect x="560" y="14" width="590" height="42" rx="12" fill="#1D1D25" stroke="#32323D"/>
  <circle cx="581" cy="35" r="7" stroke="#9A98A6" stroke-width="2"/>
  <line x1="586" y1="40" x2="591" y2="45" stroke="#9A98A6" stroke-width="2"/>
  <text x="606" y="41" fill="#8F8D99" font-family="Inter,Segoe UI,Arial,sans-serif" font-size="15">Search communities, posts, and people</text>
  <rect x="1250" y="14" width="40" height="42" rx="11" fill="#181820" stroke="#2C2C36"/>
  <circle cx="1270" cy="35" r="8" stroke="#E3E3E7"/>
  <rect x="1300" y="14" width="102" height="42" rx="12" fill="#FFFFFF"/>
  <text x="1320" y="41" fill="#121218" font-family="Inter,Segoe UI,Arial,sans-serif" font-size="15" font-weight="700">＋ Create</text>
  <rect x="1412" y="14" width="42" height="42" rx="11" fill="#181820" stroke="#2C2C36"/>
  <rect x="1462" y="14" width="42" height="42" rx="11" fill="#181820" stroke="#2C2C36"/>
  <circle cx="1535" cy="35" r="20" fill="#8E6F67" stroke="#C94C8C"/>

  <g filter="url(#softShadow)">
    <rect x="174" y="100" width="802" height="284" rx="22" fill="url(#heroGlow)" stroke="#282834"/>
  </g>
  <text x="200" y="160" fill="#FFFFFF" font-family="Inter,Segoe UI,Arial,sans-serif" font-size="35" font-weight="800" letter-spacing="-1.2">Your communities, people, and</text>
  <text x="200" y="203" fill="#FFFFFF" font-family="Inter,Segoe UI,Arial,sans-serif" font-size="35" font-weight="800" letter-spacing="-1.2">conversations in one place.</text>
  <text x="200" y="232" fill="#A9A7B3" font-family="Inter,Segoe UI,Arial,sans-serif" font-size="16">Catch up on communities you joined, people you follow, or jump outside your</text>
  <text x="200" y="257" fill="#A9A7B3" font-family="Inter,Segoe UI,Arial,sans-serif" font-size="16">bubble and discover something new.</text>
  <rect x="812" y="126" width="137" height="44" rx="13" fill="#FFFFFF"/>
  <text x="830" y="153" fill="#17171D" font-family="Inter,Segoe UI,Arial,sans-serif" font-size="14" font-weight="700">Create post  →</text>
  <line x1="200" y1="290" x2="948" y2="290" stroke="#2B2B36"/>
  <rect x="200" y="307" width="346" height="51" rx="13" fill="#1D1D25" stroke="#33333E"/>
  <text x="218" y="338" fill="#A9A7B3" font-family="Inter,Segoe UI,Arial,sans-serif" font-size="16">My communities</text>
  <rect x="354" y="311" width="100" height="43" rx="10" fill="#2B2B37"/>
  <text x="372" y="338" fill="#FFFFFF" font-family="Inter,Segoe UI,Arial,sans-serif" font-size="16">Following</text>
  <text x="467" y="338" fill="#A9A7B3" font-family="Inter,Segoe UI,Arial,sans-serif" font-size="16">Discover</text>

  <rect x="1014" y="100" width="317" height="430" rx="22" fill="#15151D" stroke="#2C2C36"/>
  <text x="1036" y="137" fill="#C59CFF" font-family="Inter,Segoe UI,Arial,sans-serif" font-size="12" font-weight="800" letter-spacing="1.5">DISCOVER</text>
  <text x="1036" y="163" fill="#FFFFFF" font-family="Inter,Segoe UI,Arial,sans-serif" font-size="16" font-weight="800">Trending communities</text>
  <text x="1275" y="148" fill="#A7A5B0" font-family="Inter,Segoe UI,Arial,sans-serif" font-size="12">See all</text>

  <g font-family="Inter,Segoe UI,Arial,sans-serif">
    <rect x="1036" y="185" width="273" height="58" rx="13" fill="#1B1B25"/>
    <text x="1042" y="218" fill="#767481" font-size="12">01</text><circle cx="1091" cy="214" r="19" fill="#40223C"/><text x="1085" y="220" fill="#E6C5E1" font-size="13" font-weight="700">M</text><text x="1122" y="209" fill="#FFFFFF" font-size="14" font-weight="700">movie</text><text x="1122" y="228" fill="#8E8C98" font-size="12">11 recent interactions · 4 members</text>
    <rect x="1036" y="250" width="273" height="58" rx="13" fill="#1B1B25"/>
    <text x="1042" y="283" fill="#767481" font-size="12">02</text><circle cx="1091" cy="279" r="19" fill="#F4F4F4"/><path d="M1080 269L1102 289M1102 269L1080 289" stroke="#7A35FF" stroke-width="3"/><text x="1122" y="274" fill="#FFFFFF" font-size="14" font-weight="700">ShuttleZone</text><text x="1122" y="293" fill="#8E8C98" font-size="12">7 recent interactions · 3 members</text>
    <rect x="1036" y="315" width="273" height="58" rx="13" fill="#1B1B25"/>
    <text x="1042" y="348" fill="#767481" font-size="12">03</text><circle cx="1091" cy="344" r="19" fill="#40223C"/><text x="1086" y="350" fill="#E6C5E1" font-size="13" font-weight="700">F</text><text x="1122" y="339" fill="#FFFFFF" font-size="14" font-weight="700">food review</text><text x="1122" y="358" fill="#8E8C98" font-size="12">2 recent interactions · 3 members</text>
    <rect x="1036" y="380" width="273" height="58" rx="13" fill="#1B1B25"/>
    <text x="1042" y="413" fill="#767481" font-size="12">04</text><circle cx="1091" cy="409" r="19" fill="#40223C"/><text x="1086" y="415" fill="#E6C5E1" font-size="13" font-weight="700">F</text><text x="1122" y="404" fill="#FFFFFF" font-size="14" font-weight="700">Fashion</text><text x="1122" y="423" fill="#8E8C98" font-size="12">2 recent interactions · 2 members</text>
    <rect x="1036" y="445" width="273" height="58" rx="13" fill="#1B1B25"/>
    <text x="1042" y="478" fill="#767481" font-size="12">05</text><circle cx="1091" cy="474" r="19" fill="#40223C"/><text x="1086" y="480" fill="#E6C5E1" font-size="13" font-weight="700">S</text><text x="1122" y="469" fill="#FFFFFF" font-size="14" font-weight="700">scheme</text><text x="1122" y="488" fill="#8E8C98" font-size="12">about schemes</text>
  </g>

  <text x="174" y="434" fill="#FFFFFF" font-family="Inter,Segoe UI,Arial,sans-serif" font-size="20" font-weight="800">From people you follow</text>
  <text x="174" y="457" fill="#9E9CA7" font-family="Inter,Segoe UI,Arial,sans-serif" font-size="13">Active conversations rising right now.</text>
  <rect x="802" y="411" width="174" height="48" rx="13" fill="#171720" stroke="#30303B"/>
  <rect x="807" y="416" width="55" height="38" rx="10" fill="#081329"/>
  <text x="824" y="442" fill="#FFFFFF" font-family="Inter,Segoe UI,Arial,sans-serif" font-size="15">Hot</text>
  <text x="873" y="442" fill="#C4B7CE" font-family="Inter,Segoe UI,Arial,sans-serif" font-size="15">New</text>
  <text x="932" y="442" fill="#C4B7CE" font-family="Inter,Segoe UI,Arial,sans-serif" font-size="15">Top</text>

  <rect x="174" y="478" width="802" height="256" rx="22" fill="#15151D" stroke="#2A2A35"/>
  <circle cx="218" cy="521" r="21" fill="#F5F5F7"/>
  <path d="M206 509L230 533M230 509L206 533" stroke="#7A35FF" stroke-width="4"/>
  <text x="250" y="517" fill="#FFFFFF" font-family="Inter,Segoe UI,Arial,sans-serif" font-size="13" font-weight="800">ShuttleZone</text>
  <text x="344" y="517" fill="#9694A0" font-family="Inter,Segoe UI,Arial,sans-serif" font-size="12">• 6 Sept  •  @segod94</text>
  <rect x="250" y="530" width="77" height="22" rx="8" fill="#1E1740"/>
  <text x="260" y="545" fill="#C5A6FF" font-family="Inter,Segoe UI,Arial,sans-serif" font-size="10" font-weight="800" letter-spacing="1">DISCUSSION</text>
  <text x="196" y="588" fill="#FFFFFF" font-family="Inter,Segoe UI,Arial,sans-serif" font-size="20" font-weight="800">Racket suggestions needed!!!!</text>
  <text x="196" y="622" fill="#B5B3BD" font-family="Inter,Segoe UI,Arial,sans-serif" font-size="15">Guyss help this lil bro out!!!</text>
  <text x="196" y="648" fill="#B5B3BD" font-family="Inter,Segoe UI,Arial,sans-serif" font-size="15">I need to buy a racket — defensive, simple, not too expensive.</text>
  <line x1="174" y1="676" x2="976" y2="676" stroke="#2A2A35"/>
  <rect x="194" y="687" width="111" height="35" rx="17" fill="#171720" stroke="#2C2C36"/><text x="207" y="709" fill="#F29065" font-family="Inter,Segoe UI,Arial,sans-serif" font-size="12">↑   1   ↓</text>
  <rect x="314" y="687" width="133" height="35" rx="17" fill="#171720" stroke="#2C2C36"/><text x="328" y="709" fill="#D8D7DC" font-family="Inter,Segoe UI,Arial,sans-serif" font-size="12">◯  6 comments</text>
  <rect x="456" y="687" width="82" height="35" rx="17" fill="#171720" stroke="#2C2C36"/><text x="470" y="709" fill="#D8D7DC" font-family="Inter,Segoe UI,Arial,sans-serif" font-size="12">↗ Share</text>
  <rect x="880" y="687" width="76" height="35" rx="17" fill="#171720" stroke="#2C2C36"/><text x="897" y="709" fill="#D8D7DC" font-family="Inter,Segoe UI,Arial,sans-serif" font-size="12">♡ Save</text>

  <rect x="174" y="752" width="802" height="230" rx="22" fill="#15151D" stroke="#2A2A35"/>
  <circle cx="218" cy="795" r="21" fill="#41213D"/>
  <text x="211" y="801" fill="#F3C4E4" font-family="Inter,Segoe UI,Arial,sans-serif" font-size="13" font-weight="800">F</text>
  <text x="250" y="790" fill="#FFFFFF" font-family="Inter,Segoe UI,Arial,sans-serif" font-size="13" font-weight="800">Fashion</text>
  <text x="312" y="790" fill="#9694A0" font-family="Inter,Segoe UI,Arial,sans-serif" font-size="12">• 6 Sept  •  @segod94</text>
  <rect x="250" y="803" width="44" height="22" rx="8" fill="#271248"/>
  <text x="261" y="818" fill="#8E4BFF" font-family="Inter,Segoe UI,Arial,sans-serif" font-size="10" font-weight="800">RATE</text>
  <text x="196" y="859" fill="#FFFFFF" font-family="Inter,Segoe UI,Arial,sans-serif" font-size="20" font-weight="800">Today's fit</text>
  <text x="196" y="895" fill="#B5B3BD" font-family="Inter,Segoe UI,Arial,sans-serif" font-size="15">How's the fit? Rate it out of 10.</text>

  <rect x="1014" y="552" width="317" height="190" rx="22" fill="#15151D" stroke="#2C2C36"/>
  <rect x="1014" y="552" width="317" height="4" rx="2" fill="url(#brand)"/>
  <text x="1036" y="596" fill="#FFFFFF" font-family="Inter,Segoe UI,Arial,sans-serif" font-size="16" font-weight="800">Build your corner of Yapster</text>
  <text x="1036" y="622" fill="#A9A7B3" font-family="Inter,Segoe UI,Arial,sans-serif" font-size="14">Start a community around a topic, hobby,</text>
  <text x="1036" y="645" fill="#A9A7B3" font-family="Inter,Segoe UI,Arial,sans-serif" font-size="14">place, profession, or idea people can</text>
  <text x="1036" y="668" fill="#A9A7B3" font-family="Inter,Segoe UI,Arial,sans-serif" font-size="14">gather around.</text>
  <text x="1036" y="711" fill="#C6A4FF" font-family="Inter,Segoe UI,Arial,sans-serif" font-size="14" font-weight="800">Create a community  →</text>
  <text x="1016" y="780" fill="#74727E" font-family="Inter,Segoe UI,Arial,sans-serif" font-size="11">Yapster · Communities worth talking about</text>
</svg>
